<?xml version="1.0" encoding="UTF-8" standalone="no"?>
<!DOCTYPE svg PUBLIC "-//W3C//DTD SVG 1.1//EN" "http://www.w3.org/Graphics/SVG/1.1/DTD/svg11.dtd">
<svg width="100%" height="100%" viewBox="0 0 54 63" version="1.1" xmlns="http://www.w3.org/2000/svg" xmlns:xlink="http://www.w3.org/1999/xlink" xml:space="preserve" xmlns:serif="http://www.serif.com/" style="fill-rule:evenodd;clip-rule:evenodd;stroke-linecap:round;stroke-linejoin:round;stroke-miterlimit:1.5;">
    <g transform="matrix(1,0,0,1,-749.343817,-511.407699)">
        <g transform="matrix(0.120281,0,0,0.117916,607.499873,422.380498)">
            <path d="M1280.964,883.901C1279.34,886.955 1278.859,890.551 1277.235,893.604C1276.756,894.506 1197.97,946.45 1194.816,1053.784C1190.692,1194.122 1327.06,1298.729 1462.414,1256.291C1596.568,1214.229 1654.586,1048.557 1558.997,927.84C1540.987,905.096 1522.956,891.931 1522.91,891.81C1521.974,889.325 1522.54,886.419 1521.603,883.934C1524.221,884.046 1526.737,882.496 1529.354,882.608C1529.363,882.608 1535.521,886.681 1542.229,891.911C1662.338,985.549 1645.624,1175.483 1511.38,1252.377C1390.697,1321.503 1236.598,1262.315 1192.5,1130.959C1163.661,1045.055 1189.829,945.963 1268.155,886.388C1268.999,885.746 1269.661,884.675 1270.695,884.474C1275.782,883.486 1275.888,884.886 1280.964,883.901Z" style="fill:white;"/>
        </g>
        <g transform="matrix(0.108745,0,0,0.106607,644.56506,457.950659)">
            <path d="M1276.511,763.928C1278.022,759.558 1275.033,687.512 1289.42,669.817C1303.806,652.121 1392.453,550.28 1392.453,550.28L1398.536,512.113C1398.536,512.113 1386.862,529.272 1374.126,537.106C1361.39,544.941 1293.235,575.547 1276.511,582.975C1259.788,590.403 1214.313,616.947 1207.767,622.118C1201.221,627.29 1154.978,694.681 1187.93,763.928C1193.554,775.748 1215.169,774.14 1226.006,773.422C1244.166,772.219 1255.29,771.017 1255.29,771.017L1276.511,766.732" style="fill:rgb(178,205,71);"/>
            <path d="M1280.445,766.982C1278.236,769.113 1276.75,772.363 1273.975,773.619C1266.848,776.845 1236.252,779.424 1232.946,779.703C1209.497,781.679 1188.958,783.297 1180.7,765.391C1177.277,757.968 1151.664,706.881 1187.609,637.741C1199.516,614.839 1207.992,612.082 1209.171,611.33C1247.572,586.83 1275.602,574.115 1281.622,571.384C1373.753,529.59 1372.9,527.612 1377.372,523.312C1391.385,509.839 1391.33,502.674 1399.024,503.099C1404.1,503.38 1408.11,508.208 1407.285,513.564C1406.783,516.821 1401.268,552.628 1400.543,554.199C1399.42,556.63 1345.975,617.544 1304.984,665.783C1295.537,676.9 1291.799,676.176 1286.899,718.576C1284.911,735.772 1283.501,761.619 1282.504,765.517C1282.511,765.517 1282.518,765.517 1282.526,765.518C1282.517,765.521 1282.509,765.525 1282.501,765.529C1282.429,765.804 1282.36,765.967 1282.293,766.007C1281.692,766.361 1281.073,766.681 1280.445,766.982ZM1270.528,761.656C1270.186,743.381 1266.26,689.332 1279.917,667.198C1285.017,658.934 1371.419,560.784 1371.626,560.366C1374.047,555.47 1375.962,550.348 1377.685,545.141C1370.037,549.796 1360.339,554.246 1345.654,561.076C1300.422,582.117 1282.138,589.067 1265.935,597.645C1259.676,600.959 1228.926,617.561 1212.725,628.536C1199.267,643.943 1167.883,701.763 1193.643,759.219C1197.39,767.577 1206.618,768.575 1252.651,764.76C1265.877,763.664 1269.108,762.277 1270.528,761.656Z" style="fill:rgb(12,40,68);"/>
        </g>
        <g transform="matrix(0.108745,0,0,0.106607,644.56506,457.950659)">
            <path d="M1167.266,824.803C1167.266,824.803 1155.38,759.86 1119.365,741.112C1105.218,733.747 1088.325,721.556 1070.956,715.765C1047.342,707.891 1027.032,708.683 1027.032,708.683C1027.032,708.683 1033.92,732.008 1053.076,748.316C1072.231,764.624 1113.001,802.288 1113.001,802.288C1113.001,802.288 1131.183,821.702 1134.453,821.961C1137.722,822.22 1165.613,824.803 1165.613,824.803" style="fill:rgb(178,205,71);"/>
            <path d="M1166.191,829.198C1165.261,829.962 1164.282,830.605 1163.146,830.855C1163.114,830.862 1151.813,830.055 1133.796,828.87C1127.627,828.464 1125.593,823.599 1096.577,797.626C1071.873,775.512 1071.888,775.564 1046.86,753.846C1027.661,737.185 1018.398,712.551 1018.53,708.401C1018.642,704.88 1021.277,700.295 1026.862,700.006C1034.579,699.608 1061.6,700.994 1084.28,711.355C1099.498,718.308 1100.785,720.515 1124.52,733.338C1145.023,744.415 1166.846,774.825 1172.274,814.858C1172.368,815.555 1173.416,823.28 1173.28,823.59C1172.104,826.283 1169.631,828.245 1168.455,830.938C1167.757,830.286 1166.987,829.725 1166.191,829.198ZM1158.17,817.616C1153.517,805.129 1144.053,781.144 1134.547,767.624C1124.381,753.166 1119.017,752.015 1097.888,739.345C1083.026,730.433 1067.13,720.897 1040.132,718.125C1048.36,734.869 1058.556,741.883 1075.762,757.526C1112.686,791.096 1117.698,796.464 1121.098,800.105C1131.248,810.976 1133.184,812.561 1136.388,815.197C1147.711,816.494 1154.288,817.203 1158.17,817.616Z" style="fill:rgb(12,40,68);"/>
        </g>
        <g transform="matrix(0.108745,0,0,0.106607,644.56506,457.950659)">
            <path d="M1396.31,515.66C1396.31,515.66 1385.674,552.499 1358.3,570.7C1330.925,588.901 1268.751,643.213 1263.8,659.375C1259.867,672.216 1196.649,744.872 1196.105,769.893C1195.964,776.364 1257.394,769.893 1257.394,769.893C1257.394,769.893 1294.378,761.446 1301.222,750.526C1308.065,739.605 1364.645,657.326 1364.457,646.92C1364.27,636.515 1396.607,566.914 1396.31,548.131C1396.012,529.347 1396.31,513.571 1396.31,513.571" style="fill:rgb(105,127,70);"/>
            <path d="M1402.522,516.846C1402.457,518.911 1402.385,522.504 1402.459,528.951C1402.72,551.921 1405.411,552.77 1390.018,595.32C1374.173,639.119 1373.113,638.834 1371.972,648.419C1370.308,662.39 1328.345,723.663 1308.01,755.151C1305.806,758.563 1299.812,767.844 1262.896,777.302C1259.654,778.133 1252.504,779.965 1221.288,781.267C1194.017,782.405 1180.644,780.881 1190.987,755.104C1203.889,722.949 1250.217,669.249 1255.659,655.126C1262.773,636.664 1317.955,586.875 1354.343,562.05C1372.925,549.372 1384.926,527.39 1389.887,515.24C1389.969,515.04 1390.048,514.844 1390.125,514.654C1390.144,513.921 1390.162,513.5 1390.18,513.472C1390.445,513.064 1390.749,512.69 1391.081,512.339C1392.085,510.054 1392.933,508.963 1394.945,509.025C1395.503,508.51 1396.014,507.956 1396.428,507.318C1397.024,508.304 1397.845,509.111 1398.715,509.88C1403.33,511.459 1403.541,513.233 1402.522,516.846ZM1389.688,548.823C1376.417,572.168 1360.518,580.511 1358.09,582.248C1334.652,599.022 1278.454,646.757 1272.006,663.432C1266.195,678.458 1216.567,735.226 1206.393,763.803C1223.363,764.827 1254.606,761.829 1258.807,760.781C1276.664,756.328 1291.768,749.939 1294.434,745.9C1316.224,712.884 1349.718,664.911 1356.903,646.339C1359.08,628.152 1386.852,571.893 1389.626,550.339C1389.647,550.179 1389.667,549.647 1389.688,548.823Z" style="fill:rgb(12,40,68);"/>
        </g>
        <g transform="matrix(0.108745,0,0,0.106607,644.56506,457.950659)">
            <path d="M1187.93,767.376C1185.118,771.996 1186.691,768.548 1198.094,760.876C1222.057,744.755 1262.914,699.189 1267.724,678.919C1274.094,652.073 1310.724,606.798 1349.856,581.999C1388.988,557.2 1398.088,516.764 1396.041,511.47C1395.114,509.075 1401.268,523.832 1372.494,538.288C1305.56,571.916 1276.447,580.736 1229.078,607.102C1154.495,648.616 1190.267,746.96 1187.93,767.376Z" style="fill:rgb(178,205,71);"/>
            <path d="M1181.825,765.32C1181.123,739.524 1148.993,643.129 1225.34,600.162C1280.686,569.013 1363.86,537.247 1380.605,522.908C1390.245,514.652 1385.836,511.277 1388.566,506.671C1392.565,499.924 1409.615,498.633 1403.596,523.326C1397.567,548.058 1380.031,572.92 1356.512,588.443C1349.933,592.786 1336.894,600.782 1317.875,619.84C1284.199,653.587 1277.946,676.656 1276.366,682.486C1272.174,697.95 1241.932,742.8 1200.025,768.154C1191.362,773.395 1188.216,777.933 1183.48,774.936C1180.46,773.025 1180.442,769.988 1180.439,769.486C1180.428,767.807 1181.171,766.329 1181.825,765.32ZM1193.492,755.219C1199.65,750.129 1203.028,747.704 1212.619,737.727C1253.865,694.824 1257.501,681.233 1259.122,675.174C1263.018,660.609 1285.659,612.953 1346.824,573.207C1357.994,565.949 1366.771,556.791 1373.286,547.558C1366.728,550.94 1359.659,554.167 1352.62,557.519C1289.788,587.447 1234.577,607.471 1213.729,628.15C1176.755,664.825 1189.806,726.545 1193.492,755.219Z" style="fill:rgb(12,40,68);"/>
        </g>
        <g transform="matrix(0.108745,0,0,0.106607,644.56506,457.950659)">
            <path d="M1285.73,644.762C1285.961,645.891 1286.645,646.888 1286.875,648.017C1286.959,648.426 1286.642,648.379 1285.68,653.098C1285.392,654.511 1283.742,673.591 1257.551,713.314C1234.333,748.527 1208.949,769.691 1201.1,771.599C1195.037,773.073 1186.25,772.025 1185.751,770.893C1185.716,770.815 1190.377,758.475 1195.086,754.276C1203.101,747.129 1228.261,729.915 1262.932,673.089C1271.837,658.494 1280.041,649.562 1282.224,646.647C1282.379,646.439 1282.326,646.061 1282.553,645.94C1283.55,645.404 1284.733,645.298 1285.73,644.762Z" style="fill:white;"/>
        </g>
        <g transform="matrix(0.108745,0,0,0.106607,644.56506,457.950659)">
            <path d="M1024.262,706.813C1024.262,706.813 1087.112,748.316 1103.292,779.767C1119.473,811.218 1162.685,826.144 1162.685,826.144C1162.685,826.144 1116.054,843.037 1075.953,794.702C1044.663,756.987 1022.46,707.497 1022.46,707.497" style="fill:rgb(105,127,70);"/>
            <path d="M1022.442,702.862C1024.273,702.398 1026.089,701.791 1027.962,701.752C1028.06,701.75 1038.479,707.362 1040.393,708.482C1075.573,729.076 1102.573,759.244 1110.41,773.724C1117.394,786.627 1128.714,802.712 1165.535,817.868C1172.257,820.634 1175.391,831.933 1162.806,835.238C1140.69,841.046 1108.599,837.321 1082.087,812.73C1047.933,781.051 1016.869,710.712 1016.902,710.138C1017.029,707.954 1018.519,706.06 1019.356,704.028C1019.289,703.812 1019.215,703.599 1019.132,703.388C1019.288,703.385 1019.444,703.378 1019.6,703.367C1019.765,702.861 1019.877,702.344 1019.908,701.81C1020.717,702.243 1021.571,702.571 1022.442,702.862ZM1041.5,730.101C1055.872,755.496 1079.646,792.997 1102.357,808.049C1111.744,814.27 1120.892,817.555 1129.034,819.131C1102.579,802.126 1096.468,784.653 1090.266,776.259C1078.128,759.831 1063.555,749.038 1041.5,730.101Z" style="fill:rgb(12,40,68);"/>
        </g>
        <g transform="matrix(0.104671,-0.028907,0.029487,0.102613,627.89423,500.563897)">
            <path d="M1103.03,698.557C1106.018,699.886 1113.759,707.045 1117.031,712.093C1126.599,726.852 1129.306,734.94 1151.864,757.104C1154.149,759.349 1153.756,762.544 1153.813,766.297C1153.858,769.236 1154.842,770.075 1152.171,771.144C1143.155,774.754 1141.165,773.894 1132.922,765.753C1111.995,745.081 1103.15,719.076 1102.465,715.893C1101.01,709.13 1102.342,698.251 1103.03,698.557Z" style="fill:white;"/>
        </g>
        <g transform="matrix(0.108745,0,0,0.078485,644.56506,479.701765)">
            <path d="M1231.438,1032.752C1228.58,1032.012 1225.628,1032.136 1222.77,1031.397C1222.713,1031.382 1221.608,1029.244 1221.605,1029.236C1205.958,998.308 1249.126,976.085 1241.724,951.519C1234.008,925.912 1197.576,907.222 1181.896,890.486C1145.776,851.932 1158.04,801.155 1174.052,778.502C1174.638,777.674 1177.48,773.652 1181.977,769.04C1182.559,768.442 1183.013,767.365 1183.734,767.268C1188.097,766.687 1188.065,768.228 1192.4,767.65C1191.955,771.588 1192.613,775.665 1192.168,779.603C1191.996,781.125 1191.062,780.497 1184.313,799.621C1178.944,814.835 1162.965,849.547 1205.038,882.459C1233.588,904.792 1281.131,941.973 1245.359,992.36C1237.521,1003.399 1228.457,1012.847 1231.903,1019.963C1232.055,1020.275 1232.406,1020.49 1232.392,1020.866C1232.173,1026.881 1231.656,1026.766 1231.438,1032.752Z" style="fill:white;"/>
        </g>
        <g transform="matrix(0.104671,-0.028907,0.029487,0.102613,627.89423,500.563897)">
            <path d="M1158.123,773.355C1157.126,774.356 1156.12,775.346 1154.956,776.122C1154.784,776.237 1131.872,776.516 1112.159,765.271C1059.884,735.454 1054.961,681.486 1048.576,656.975C1039.409,621.789 1031.963,616.395 1035.575,609.452C1037.813,605.15 1042.357,599.801 1070.008,612.526C1115.009,633.234 1172.868,682.92 1162.351,764.864C1162.291,765.329 1161.611,770.626 1161.562,770.677C1160.555,771.729 1159.34,772.544 1158.123,773.355ZM1150.153,761.999C1151.857,741.786 1151.509,682.673 1085.89,640.492C1073.747,632.687 1064.055,628.163 1057.003,625.516C1075.846,676.38 1069.126,689.514 1090.04,720.076C1107.985,746.3 1137.517,757.99 1150.153,761.999Z" style="fill:white;"/>
        </g>
        <g transform="matrix(0.108745,0,0,0.106607,644.56506,457.950659)">
            <path d="M1187.93,769.893C1187.93,769.893 1149.809,656.492 1220.907,612.056C1292.005,567.62 1369.145,555.534 1390.119,520.341C1411.093,485.147 1403.983,566.554 1352.082,673.911C1300.181,781.269 1249.512,778.069 1187.93,769.893Z" style="fill:none;stroke:white;stroke-width:19.35px;"/>
        </g>
    </g>
</svg>
