<?xml version="1.0" encoding="UTF-8" standalone="no"?>
<!DOCTYPE svg PUBLIC "-//W3C//DTD SVG 1.1//EN" "http://www.w3.org/Graphics/SVG/1.1/DTD/svg11.dtd">
<svg width="100%" height="100%" viewBox="0 0 53 53" version="1.1" xmlns="http://www.w3.org/2000/svg" xmlns:xlink="http://www.w3.org/1999/xlink" xml:space="preserve" xmlns:serif="http://www.serif.com/" style="fill-rule:evenodd;clip-rule:evenodd;stroke-linejoin:round;stroke-miterlimit:2;">
    <g transform="matrix(1,0,0,1,-748.833899,-416.099416)">
        <g transform="matrix(0.211308,0,0,0.211308,245.631598,166.813976)">
            <path d="M2623.426,1243.938L2623.426,1362.5C2623.426,1395.219 2596.863,1421.782 2564.145,1421.782L2445.582,1421.782C2412.864,1421.782 2386.301,1395.219 2386.301,1362.5L2386.301,1243.938C2386.301,1211.219 2412.864,1184.656 2445.582,1184.656L2564.145,1184.656C2596.863,1184.656 2623.426,1211.219 2623.426,1243.938Z" style="fill:rgb(198,205,207);"/>
            <path d="M2620.271,1243.938L2626.581,1243.938C2627.997,1303.237 2628.212,1303.213 2628.194,1362.515C2628.182,1397.974 2599.315,1426.531 2564.16,1426.488C2554.411,1426.477 2444.12,1426.344 2442.303,1426.238C2406.97,1424.176 2381.852,1395.194 2381.905,1362.514C2381.92,1352.767 2382.097,1242.711 2382.203,1240.677C2383.954,1207.261 2411.673,1180.603 2445.569,1180.655C2455.314,1180.671 2562.508,1180.837 2567.376,1181.137C2569.746,1181.282 2591.717,1181.881 2609.492,1200.716C2627.292,1219.577 2626.536,1241.538 2626.581,1243.923L2620.271,1243.938C2620.175,1240.142 2620.399,1221.557 2604.137,1204.895C2592.899,1193.38 2577.526,1188.221 2564.865,1188.273C2445.202,1188.759 2445.171,1188.301 2438.543,1189.117C2412.871,1192.275 2390.438,1214.654 2390.486,1243.951C2390.675,1359.805 2390.08,1359.822 2391.067,1368.802C2394.121,1396.567 2418.585,1417.267 2444.874,1417.234C2562.648,1417.09 2562.683,1417.654 2570.412,1416.709C2600.817,1412.992 2618.626,1387.044 2618.654,1363.206C2618.725,1303.561 2618.847,1303.576 2620.271,1243.938Z" style="fill:white;"/>
        </g>
        <g transform="matrix(0.211308,0,0,0.211308,245.455274,166.813976)">
            <path d="M2498.197,1196.762L2499.508,1198.074C2489.585,1210.557 2489.936,1210.84 2479.18,1222.606C2459.732,1243.882 2448.521,1254.844 2437.608,1265.205C2411.723,1289.78 2409.793,1290.223 2400.711,1297.004L2399.266,1295.559C2406.048,1286.478 2406.491,1284.548 2431.066,1258.662C2432.905,1256.725 2445.914,1242.802 2464.503,1225.545C2488.375,1203.383 2489.087,1204.004 2498.197,1196.762Z" style="fill:rgb(229,241,244);fill-opacity:0.71;"/>
        </g>
        <g transform="matrix(0.161364,0.037321,0.037321,0.161364,316.942165,133.358125)">
            <path d="M2498.155,1196.721L2499.55,1198.115C2492.469,1207.155 2493.056,1208.011 2470.924,1231.965C2455.937,1248.185 2441.833,1261.972 2423.021,1279.162C2411.883,1289.34 2411.698,1289.012 2401.252,1296.556C2401.066,1296.69 2400.891,1297.118 2400.757,1297.05C2400.094,1296.709 2399.561,1296.177 2399.221,1295.513C2399.152,1295.38 2399.581,1295.204 2399.715,1295.019C2405.312,1287.268 2404.902,1285.885 2430.858,1258.454C2432.695,1256.513 2445.675,1242.561 2464.306,1225.347C2488.259,1203.214 2489.115,1203.801 2498.155,1196.721Z" style="fill:rgb(229,241,244);fill-opacity:0.71;"/>
        </g>
        <g transform="matrix(0.257202,-0.045894,-0.045894,0.257202,194.801468,226.542328)">
            <path d="M2498.712,1196.363L2499.908,1197.559C2497.846,1200.197 2495.814,1202.861 2493.752,1205.499C2470.699,1234.993 2421.566,1281.067 2411.419,1289.008C2409.847,1290.239 2408.257,1291.45 2406.644,1292.634C2404.852,1293.95 2402.976,1295.169 2401.206,1296.51C2400.829,1296.795 2400.585,1297.222 2400.208,1297.508L2398.763,1296.063C2399.048,1295.686 2399.475,1295.442 2399.761,1295.065C2401.101,1293.294 2402.32,1291.418 2403.636,1289.626C2406.271,1286.039 2412.811,1277.135 2440.77,1248.58C2442.621,1246.69 2451.558,1237.562 2464.503,1225.545C2483.592,1207.824 2483.782,1208.032 2498.712,1196.363Z" style="fill:rgb(229,241,244);fill-opacity:0.71;"/>
        </g>
        <g transform="matrix(0.18303,0.028278,0.028278,0.18303,304.600232,157.945674)">
            <path d="M2498.197,1196.762L2499.508,1198.074C2489.594,1210.547 2489.974,1210.798 2479.18,1222.606C2459.735,1243.878 2448.526,1254.84 2437.608,1265.205C2411.706,1289.796 2409.769,1290.24 2400.711,1297.004L2399.266,1295.559C2406.03,1286.501 2406.475,1284.565 2431.066,1258.662C2432.906,1256.724 2445.915,1242.802 2464.503,1225.545C2488.388,1203.371 2489.146,1203.957 2498.197,1196.762Z" style="fill:rgb(229,241,244);fill-opacity:0.71;"/>
        </g>
        <g transform="matrix(0.154255,0.057053,0.057053,0.154255,343.51303,128.147386)">
            <path d="M2498.197,1196.762L2499.508,1198.074C2492.465,1206.935 2492.937,1207.842 2470.726,1231.767C2455.696,1247.957 2441.599,1261.755 2422.845,1278.985C2411.553,1289.359 2411.401,1289 2401.206,1296.51C2401.026,1296.643 2400.812,1297.053 2400.711,1297.004C2400.073,1296.691 2399.579,1296.198 2399.266,1295.559C2399.217,1295.459 2399.628,1295.245 2399.761,1295.065C2405.386,1287.427 2405.035,1286.081 2431.066,1258.662C2432.908,1256.722 2445.916,1242.801 2464.503,1225.545C2488.428,1203.334 2489.336,1203.806 2498.197,1196.762Z" style="fill:rgb(229,241,244);fill-opacity:0.71;"/>
        </g>
        <g transform="matrix(0.222587,0,0,0.222587,429.670878,-479.107253)">
            <g transform="matrix(73.494917,0,0,73.494917,1480.704421,4163.936604)">
                <path d="M0.18,-0L0.18,-0.678L0.203,-0.654L0.009,-0.654L0.009,-0.7L0.231,-0.7L0.231,-0L0.18,-0Z" style="fill:white;fill-rule:nonzero;"/>
            </g>
            <g transform="matrix(73.494917,0,0,73.494917,1506.648127,4163.936604)">
                <path d="M0.315,0.005C0.26,0.005 0.213,-0.003 0.173,-0.019C0.134,-0.035 0.104,-0.057 0.083,-0.087C0.061,-0.117 0.051,-0.152 0.051,-0.192C0.051,-0.231 0.061,-0.265 0.082,-0.293C0.103,-0.321 0.133,-0.343 0.172,-0.358C0.212,-0.373 0.259,-0.38 0.315,-0.38C0.371,-0.38 0.419,-0.373 0.458,-0.358C0.498,-0.343 0.528,-0.321 0.549,-0.293C0.571,-0.265 0.581,-0.231 0.581,-0.192C0.581,-0.152 0.571,-0.117 0.549,-0.087C0.528,-0.057 0.497,-0.035 0.458,-0.019C0.418,-0.003 0.37,0.005 0.315,0.005ZM0.315,-0.039C0.383,-0.039 0.435,-0.052 0.473,-0.08C0.511,-0.108 0.53,-0.145 0.53,-0.192C0.53,-0.239 0.511,-0.276 0.473,-0.303C0.435,-0.331 0.383,-0.344 0.315,-0.344C0.248,-0.344 0.196,-0.331 0.158,-0.303C0.121,-0.276 0.102,-0.239 0.102,-0.192C0.102,-0.145 0.121,-0.108 0.158,-0.08C0.196,-0.052 0.248,-0.039 0.315,-0.039ZM0.315,-0.386C0.375,-0.386 0.422,-0.398 0.455,-0.423C0.489,-0.447 0.505,-0.481 0.505,-0.522C0.505,-0.565 0.488,-0.599 0.454,-0.624C0.419,-0.649 0.373,-0.661 0.315,-0.661C0.257,-0.661 0.212,-0.649 0.178,-0.624C0.144,-0.599 0.127,-0.566 0.127,-0.523C0.127,-0.481 0.143,-0.448 0.176,-0.423C0.209,-0.398 0.256,-0.386 0.315,-0.386ZM0.315,-0.351C0.264,-0.351 0.221,-0.358 0.185,-0.371C0.15,-0.385 0.123,-0.405 0.104,-0.431C0.085,-0.457 0.076,-0.488 0.076,-0.524C0.076,-0.561 0.086,-0.594 0.105,-0.621C0.125,-0.648 0.153,-0.669 0.189,-0.683C0.225,-0.698 0.267,-0.705 0.315,-0.705C0.364,-0.705 0.406,-0.698 0.442,-0.683C0.478,-0.669 0.506,-0.648 0.526,-0.621C0.546,-0.594 0.556,-0.561 0.556,-0.524C0.556,-0.488 0.547,-0.457 0.528,-0.431C0.509,-0.405 0.481,-0.385 0.445,-0.371C0.409,-0.358 0.366,-0.351 0.315,-0.351Z" style="fill:white;fill-rule:nonzero;"/>
            </g>
            <g transform="matrix(73.494917,0,0,73.494917,1553.096914,4163.936604)">
                <path d="M-0.023,0.1L0.307,-0.842L0.353,-0.842L0.023,0.1L-0.023,0.1Z" style="fill:white;fill-rule:nonzero;"/>
            </g>
            <g transform="matrix(73.494917,0,0,73.494917,1575.071894,4163.936604)">
                <path d="M0.315,0.005C0.26,0.005 0.213,-0.003 0.173,-0.019C0.134,-0.035 0.104,-0.057 0.083,-0.087C0.061,-0.117 0.051,-0.152 0.051,-0.192C0.051,-0.231 0.061,-0.265 0.082,-0.293C0.103,-0.321 0.133,-0.343 0.172,-0.358C0.212,-0.373 0.259,-0.38 0.315,-0.38C0.371,-0.38 0.419,-0.373 0.458,-0.358C0.498,-0.343 0.528,-0.321 0.549,-0.293C0.571,-0.265 0.581,-0.231 0.581,-0.192C0.581,-0.152 0.571,-0.117 0.549,-0.087C0.528,-0.057 0.497,-0.035 0.458,-0.019C0.418,-0.003 0.37,0.005 0.315,0.005ZM0.315,-0.039C0.383,-0.039 0.435,-0.052 0.473,-0.08C0.511,-0.108 0.53,-0.145 0.53,-0.192C0.53,-0.239 0.511,-0.276 0.473,-0.303C0.435,-0.331 0.383,-0.344 0.315,-0.344C0.248,-0.344 0.196,-0.331 0.158,-0.303C0.121,-0.276 0.102,-0.239 0.102,-0.192C0.102,-0.145 0.121,-0.108 0.158,-0.08C0.196,-0.052 0.248,-0.039 0.315,-0.039ZM0.315,-0.386C0.375,-0.386 0.422,-0.398 0.455,-0.423C0.489,-0.447 0.505,-0.481 0.505,-0.522C0.505,-0.565 0.488,-0.599 0.454,-0.624C0.419,-0.649 0.373,-0.661 0.315,-0.661C0.257,-0.661 0.212,-0.649 0.178,-0.624C0.144,-0.599 0.127,-0.566 0.127,-0.523C0.127,-0.481 0.143,-0.448 0.176,-0.423C0.209,-0.398 0.256,-0.386 0.315,-0.386ZM0.315,-0.351C0.264,-0.351 0.221,-0.358 0.185,-0.371C0.15,-0.385 0.123,-0.405 0.104,-0.431C0.085,-0.457 0.076,-0.488 0.076,-0.524C0.076,-0.561 0.086,-0.594 0.105,-0.621C0.125,-0.648 0.153,-0.669 0.189,-0.683C0.225,-0.698 0.267,-0.705 0.315,-0.705C0.364,-0.705 0.406,-0.698 0.442,-0.683C0.478,-0.669 0.506,-0.648 0.526,-0.621C0.546,-0.594 0.556,-0.561 0.556,-0.524C0.556,-0.488 0.547,-0.457 0.528,-0.431C0.509,-0.405 0.481,-0.385 0.445,-0.371C0.409,-0.358 0.366,-0.351 0.315,-0.351Z" style="fill:white;fill-rule:nonzero;"/>
            </g>
            <g transform="matrix(73.494917,0,0,73.494917,1621.520682,4163.936604)">
            </g>
        </g>
    </g>
</svg>
