<?xml version="1.0" encoding="UTF-8" standalone="no"?>
<!DOCTYPE svg PUBLIC "-//W3C//DTD SVG 1.1//EN" "http://www.w3.org/Graphics/SVG/1.1/DTD/svg11.dtd">
<svg width="100%" height="100%" viewBox="0 0 34 52" version="1.1" xmlns="http://www.w3.org/2000/svg" xmlns:xlink="http://www.w3.org/1999/xlink" xml:space="preserve" xmlns:serif="http://www.serif.com/" style="fill-rule:evenodd;clip-rule:evenodd;stroke-linecap:round;stroke-linejoin:round;stroke-miterlimit:1.5;">
    <g transform="matrix(1,0,0,1,-759.123963,-320.446209)">
        <g transform="matrix(0.069293,0,0,0.069293,678.944905,249.835828)">
            <path d="M1398.434,1034.257C1398.434,1034.257 1230.688,1311.668 1178.457,1466.978C1152.107,1545.332 1204.864,1741.524 1398.434,1740.126C1570.48,1738.884 1664.017,1541.335 1619.597,1448.159C1557.355,1317.603 1400.821,1025.05 1398.434,1034.257Z" style="fill:rgb(161,215,227);"/>
        </g>
        <g transform="matrix(0.069293,0,0,0.069293,678.981096,249.635604)">
            <path d="M1401.36,1036.934C1401.36,1036.934 1202.335,1350.434 1174.926,1480.472C1156.989,1565.569 1209.022,1750.06 1401.36,1740.134C1488.573,1735.633 1439.881,1726.527 1439.881,1726.527C1439.881,1726.527 1283.573,1638.492 1317.683,1480.472C1351.793,1322.452 1473.789,1164.98 1473.789,1164.98L1401.36,1036.934Z" style="fill:rgb(107,199,223);"/>
        </g>
        <g transform="matrix(0.069293,0,0,0.069293,678.944905,249.835828)">
            <path d="M1398.434,1034.257C1398.434,1034.257 1230.688,1311.668 1178.457,1466.978C1152.107,1545.332 1204.864,1741.524 1398.434,1740.126C1570.48,1738.884 1664.017,1541.335 1619.597,1448.159C1557.355,1317.603 1400.821,1025.05 1398.434,1034.257Z" style="fill:none;stroke:white;stroke-width:30.07px;"/>
        </g>
    </g>
</svg>
