
<?xml version="1.0" encoding="UTF-8" standalone="no"?>
<!DOCTYPE svg PUBLIC "-//W3C//DTD SVG 1.1//EN" "http://www.w3.org/Graphics/SVG/1.1/DTD/svg11.dtd">
<svg width="100%" height="100%" viewBox="0 0 94 60" version="1.1" xmlns="http://www.w3.org/2000/svg" xmlns:xlink="http://www.w3.org/1999/xlink" xml:space="preserve" xmlns:serif="http://www.serif.com/" style="fill-rule:evenodd;clip-rule:evenodd;stroke-linejoin:round;stroke-miterlimit:1.5;">
    <g transform="matrix(1,0,0,1,-728.127773,-218.30435)">
        <g transform="matrix(0.176469,0,0,0.127543,649.862549,152.54471)">
            <path d="M798.311,586.735L798.311,895.741C798.311,920.67 778.071,940.91 753.142,940.91L662.804,940.91C637.875,940.91 617.635,920.67 617.635,895.741L617.635,586.735" style="fill:none;stroke:white;stroke-width:13.53px;"/>
        </g>
        <g transform="matrix(0.176469,0,0,0.127543,649.862549,152.54471)">
            <path d="M798.311,586.735L798.311,895.741C798.311,920.67 778.071,940.91 753.142,940.91L662.804,940.91C637.875,940.91 617.635,920.67 617.635,895.741L617.635,586.735" style="fill:none;stroke:white;stroke-width:13.53px;"/>
        </g>
        <g transform="matrix(0.23408,0,0,0.138144,609.168707,146.325061)">
            <path d="M798.311,586.735L798.311,895.741C798.311,920.67 778.071,940.91 753.142,940.91L662.804,940.91C637.875,940.91 617.635,920.67 617.635,895.741L617.635,586.735" style="fill:none;stroke:white;stroke-width:10.84px;"/>
        </g>
        <g transform="matrix(0.219064,0,0,0.101713,620.298286,200.495457)">
            <g transform="matrix(4.564872,-0,-0,9.831624,492.227829,175.090342)">
                <path d="M51.854,37.286L45.604,40.412L51.855,43.536L51.854,37.286Z" style="fill:rgb(107,199,223);"/>
                <path d="M50.604,40.411C51.686,40.411 58.86,40.498 58.753,42.874C58.637,45.445 48.727,45.481 46.772,45.49" style="fill:none;stroke:rgb(107,199,223);stroke-width:2.08px;"/>
            </g>
        </g>
        <g transform="matrix(-0.219064,0,0,-0.101713,929.483319,327.092561)">
            <g transform="matrix(-4.564872,-0,-0,-9.831624,919.162333,1069.564828)">
                <path d="M41.672,53.693L47.922,50.567L41.671,47.443L41.672,53.693Z" style="fill:rgb(107,199,223);"/>
                <path d="M42.922,50.568C41.84,50.568 34.666,50.482 34.773,48.105C34.889,45.535 44.799,45.499 46.754,45.49" style="fill:none;stroke:rgb(107,199,223);stroke-width:2.08px;"/>
            </g>
        </g>
        <g transform="matrix(0.219064,0,0,0.101713,620.372637,185.939453)">
            <g transform="matrix(4.564872,-0,-0,9.831624,491.888427,318.199506)">
                <path d="M51.928,22.73L45.679,25.856L51.929,28.98L51.928,22.73Z" style="fill:rgb(107,199,223);"/>
                <path d="M50.679,25.855C51.76,25.855 58.935,25.942 58.827,28.318C58.711,30.889 48.801,30.925 46.846,30.934" style="fill:none;stroke:rgb(107,199,223);stroke-width:2.08px;"/>
            </g>
        </g>
        <g transform="matrix(-0.219064,0,0,-0.101713,929.55767,312.536557)">
            <g transform="matrix(-4.564872,-0,-0,-9.831624,919.501736,926.455664)">
                <path d="M41.746,39.137L47.996,36.011L41.746,32.887L41.746,39.137Z" style="fill:rgb(107,199,223);"/>
                <path d="M42.996,36.012C41.915,36.012 34.74,35.926 34.847,33.549C34.964,30.979 44.874,30.943 46.829,30.934" style="fill:none;stroke:rgb(107,199,223);stroke-width:2.08px;"/>
            </g>
        </g>
        <g transform="matrix(0.219064,0,0,0.101713,620.372637,171.333479)">
            <g transform="matrix(4.564872,-0,-0,9.831624,491.888427,461.799957)">
                <path d="M51.928,8.124L45.679,11.25L51.929,14.374L51.928,8.124Z" style="fill:rgb(107,199,223);"/>
                <path d="M50.679,11.249C51.76,11.249 58.935,11.336 58.827,13.712C58.711,16.283 48.801,16.319 46.846,16.328" style="fill:none;stroke:rgb(107,199,223);stroke-width:2.08px;"/>
            </g>
        </g>
        <g transform="matrix(-0.219064,0,0,-0.101713,929.55767,297.930583)">
            <g transform="matrix(-4.564872,-0,-0,-9.831624,919.501736,782.855213)">
                <path d="M41.746,24.531L47.996,21.405L41.746,18.281L41.746,24.531Z" style="fill:rgb(107,199,223);"/>
                <path d="M42.996,21.406C41.915,21.406 34.74,21.32 34.847,18.943C34.964,16.373 44.874,16.337 46.829,16.328" style="fill:none;stroke:rgb(107,199,223);stroke-width:2.08px;"/>
            </g>
        </g>
        <g transform="matrix(0.176469,0,0,0.127543,645.897262,152.54471)">
            <path d="M529.827,607.536C541.705,607.066 590.842,605.177 600.765,631.678C611.251,659.684 573.544,664.791 560.774,664.408" style="fill:none;stroke:rgb(245,64,9);stroke-width:13.53px;"/>
        </g>
        <g transform="matrix(0.176469,0,0,0.127543,646.789453,160.480668)">
            <g transform="matrix(5.666727,-0,-0,7.840481,460.922026,453.365457)">
                <path d="M20.127,22.96L13.619,18.638L19.59,13.601L20.127,22.96Z" style="fill:rgb(253,143,2);"/>
                <path d="M11.267,11.292C13.984,11.292 22.511,10.756 24.064,14.653C24.209,15.016 24.221,15.581 24.064,16.078C23.646,17.402 21.09,18.043 18.611,18.352" style="fill:none;stroke:rgb(253,143,2);stroke-width:2.08px;"/>
            </g>
        </g>
        <g transform="matrix(-0.176469,0,0,0.127543,903.960306,152.54471)">
            <path d="M529.827,607.536C541.705,607.066 590.842,605.177 600.765,631.678C611.251,659.684 573.544,664.791 560.774,664.408" style="fill:none;stroke:rgb(245,64,9);stroke-width:13.53px;"/>
        </g>
        <g transform="matrix(-0.176469,0,0,0.127543,903.068114,160.480668)">
            <g transform="matrix(-5.666727,0,0,7.840481,991.339096,453.365457)">
                <path d="M74.012,13.601L79.983,18.638L73.475,22.96L74.012,13.601Z" style="fill:rgb(253,143,2);"/>
                <path d="M82.335,11.292C79.618,11.292 71.091,10.756 69.538,14.653C69.393,15.016 69.381,15.581 69.538,16.078C69.956,17.402 72.512,18.043 74.991,18.352" style="fill:none;stroke:rgb(253,143,2);stroke-width:2.08px;"/>
            </g>
        </g>
        <g transform="matrix(0.176469,0,0,0.127543,645.897262,167.132728)">
            <path d="M529.827,607.536C541.705,607.066 590.842,605.177 600.765,631.678C611.251,659.684 573.544,664.791 560.774,664.408" style="fill:none;stroke:rgb(245,64,9);stroke-width:13.53px;"/>
        </g>
        <g transform="matrix(0.176469,0,0,0.127543,646.789453,175.068685)">
            <g transform="matrix(5.666727,-0,-0,7.840481,460.922026,338.98839)">
                <path d="M20.127,37.548L13.619,33.226L19.59,28.189L20.127,37.548Z" style="fill:rgb(253,143,2);"/>
                <path d="M11.267,25.88C13.984,25.88 22.511,25.344 24.064,29.241C24.209,29.604 24.221,30.169 24.064,30.666C23.646,31.99 21.09,32.631 18.611,32.94" style="fill:none;stroke:rgb(253,143,2);stroke-width:2.08px;"/>
            </g>
        </g>
        <g transform="matrix(-0.176469,0,0,0.127543,903.960306,167.132728)">
            <path d="M529.827,607.536C541.705,607.066 590.842,605.177 600.765,631.678C611.251,659.684 573.544,664.791 560.774,664.408" style="fill:none;stroke:rgb(245,64,9);stroke-width:13.53px;"/>
        </g>
        <g transform="matrix(-0.176469,0,0,0.127543,903.068114,175.068685)">
            <g transform="matrix(-5.666727,0,0,7.840481,991.339096,338.98839)">
                <path d="M74.012,28.189L79.983,33.226L73.475,37.548L74.012,28.189Z" style="fill:rgb(253,143,2);"/>
                <path d="M82.335,25.88C79.618,25.88 71.091,25.344 69.538,29.241C69.393,29.604 69.381,30.169 69.538,30.666C69.956,31.99 72.512,32.631 74.991,32.94" style="fill:none;stroke:rgb(253,143,2);stroke-width:2.08px;"/>
            </g>
        </g>
        <g transform="matrix(0.176469,0,0,0.127543,645.897262,181.366804)">
            <path d="M529.827,607.536C541.705,607.066 590.842,605.177 600.765,631.678C611.251,659.684 573.544,664.791 560.774,664.408" style="fill:none;stroke:rgb(245,64,9);stroke-width:13.53px;"/>
        </g>
        <g transform="matrix(0.176469,0,0,0.127543,646.789453,189.302761)">
            <g transform="matrix(5.666727,-0,-0,7.840481,460.922026,227.386393)">
                <path d="M20.127,51.782L13.619,47.46L19.59,42.423L20.127,51.782Z" style="fill:rgb(253,143,2);"/>
                <path d="M11.267,40.114C13.984,40.114 22.511,39.578 24.064,43.475C24.209,43.838 24.221,44.403 24.064,44.9C23.646,46.224 21.09,46.865 18.611,47.174" style="fill:none;stroke:rgb(253,143,2);stroke-width:2.08px;"/>
            </g>
        </g>
        <g transform="matrix(-0.176469,0,0,0.127543,903.960306,181.366804)">
            <path d="M529.827,607.536C541.705,607.066 590.842,605.177 600.765,631.678C611.251,659.684 573.544,664.791 560.774,664.408" style="fill:none;stroke:rgb(245,64,9);stroke-width:13.53px;"/>
        </g>
        <g transform="matrix(-0.176469,0,0,0.127543,903.068114,189.302761)">
            <g transform="matrix(-5.666727,0,0,7.840481,991.339096,227.386393)">
                <path d="M74.012,42.423L79.983,47.46L73.475,51.782L74.012,42.423Z" style="fill:rgb(253,143,2);"/>
                <path d="M82.335,40.114C79.618,40.114 71.091,39.578 69.538,43.475C69.393,43.838 69.381,44.403 69.538,44.9C69.956,46.224 72.512,46.865 74.991,47.174" style="fill:none;stroke:rgb(253,143,2);stroke-width:2.08px;"/>
            </g>
        </g>
    </g>
</svg>
